# xmcd
# Track frame offsets:
# 150
# 17198
# 37590
# 54477
# 67089
# 80459
# 94943
# 111412
# 125674
#
# Disc length: 1899 seconds
# Revision: 0
# Processed by: cddbd v1.5.1PL0 Copyright (c) Steve Scherf et al.
# Submitted via: VisiTrax 2.9.10.228 - For more info visit www.synapsa.com
#
DISCID=76076909
DTITLE=Various Artist - Hits Monthly Nashville  PHN0410
DYEAR=1900
DGENRE=Karaoke
TTITLE0=Bentley, Dierks - How Am I Doin'
TTITLE1=Strait, George - I Hate Everything
TTITLE2=Montgomery, John Michael - Goes Good With Beer
TTITLE3=Tyler, Ryan - Last Thing She Said, The
TTITLE4=Brooks and Dunn - That's What It's All About
TTITLE5=Lawrence, Tracy - It's All How You Look At It
TTITLE6=Montgomery Gentry - You Do Your Thing
TTITLE7=Trick Pony - Bride, The
TTITLE8=Wayne, Jimmy - You Are
EXTD=
EXTT0=
EXTT1=
EXTT2=
EXTT3=
EXTT4=
EXTT5=
EXTT6=
EXTT7=
EXTT8=
PLAYORDER=
